<svg xmlns="http://www.w3.org/2000/svg" viewBox="-0.20 -0.20 100.40 100.40" width="100" height="100" role="img" aria-label="First Light (white)">
<g fill="#FFFFFF">
<circle cx="50.00" cy="23.00" r="3.80"/>
<circle cx="60.33" cy="25.06" r="3.80"/>
<circle cx="69.09" cy="30.91" r="3.80"/>
<circle cx="74.94" cy="39.67" r="3.80"/>
<circle cx="77.00" cy="50.00" r="3.80"/>
<circle cx="74.94" cy="60.33" r="3.80"/>
<circle cx="69.09" cy="69.09" r="3.80"/>
<circle cx="60.33" cy="74.94" r="3.80"/>
<circle cx="50.00" cy="77.00" r="3.80"/>
<circle cx="39.67" cy="74.94" r="3.80"/>
<circle cx="30.91" cy="69.09" r="3.80"/>
<circle cx="25.06" cy="60.33" r="3.80"/>
<circle cx="23.00" cy="50.00" r="3.80"/>
<circle cx="25.06" cy="39.67" r="3.80"/>
<circle cx="30.91" cy="30.91" r="3.80"/>
<circle cx="39.67" cy="25.06" r="3.80"/>
<circle cx="50.00" cy="14.00" r="3.00"/>
<circle cx="63.78" cy="16.74" r="3.00"/>
<circle cx="75.46" cy="24.54" r="3.00"/>
<circle cx="83.26" cy="36.22" r="3.00"/>
<circle cx="86.00" cy="50.00" r="3.00"/>
<circle cx="83.26" cy="63.78" r="3.00"/>
<circle cx="75.46" cy="75.46" r="3.00"/>
<circle cx="63.78" cy="83.26" r="3.00"/>
<circle cx="50.00" cy="86.00" r="3.00"/>
<circle cx="36.22" cy="83.26" r="3.00"/>
<circle cx="24.54" cy="75.46" r="3.00"/>
<circle cx="16.74" cy="63.78" r="3.00"/>
<circle cx="14.00" cy="50.00" r="3.00"/>
<circle cx="16.74" cy="36.22" r="3.00"/>
<circle cx="24.54" cy="24.54" r="3.00"/>
<circle cx="36.22" cy="16.74" r="3.00"/>
<circle cx="50.00" cy="5.00" r="2.20"/>
<circle cx="67.22" cy="8.43" r="2.20"/>
<circle cx="81.82" cy="18.18" r="2.20"/>
<circle cx="91.57" cy="32.78" r="2.20"/>
<circle cx="95.00" cy="50.00" r="2.20"/>
<circle cx="91.57" cy="67.22" r="2.20"/>
<circle cx="81.82" cy="81.82" r="2.20"/>
<circle cx="67.22" cy="91.57" r="2.20"/>
<circle cx="50.00" cy="95.00" r="2.20"/>
<circle cx="32.78" cy="91.57" r="2.20"/>
<circle cx="18.18" cy="81.82" r="2.20"/>
<circle cx="8.43" cy="67.22" r="2.20"/>
<circle cx="5.00" cy="50.00" r="2.20"/>
<circle cx="8.43" cy="32.78" r="2.20"/>
<circle cx="18.18" cy="18.18" r="2.20"/>
<circle cx="32.78" cy="8.43" r="2.20"/>
</g></svg>